<?xml version="1.0" encoding="utf-8"?>
<!-- Generator: Adobe Illustrator 19.1.0, SVG Export Plug-In . SVG Version: 6.00 Build 0)  -->
<svg version="1.1" id="Layer_1" xmlns="http://www.w3.org/2000/svg" xmlns:xlink="http://www.w3.org/1999/xlink" x="0px" y="0px"
	 viewBox="0 0 59.9 60" style="enable-background:new 0 0 59.9 60;" xml:space="preserve">
<style type="text/css">
	.st0{fill:#FFFFFF;}
</style>
<g id="PRGSX9.tif">
	<g>
		<path class="st0" d="M56.8,28.8c0,0.8,0,1.6,0,2.5c-0.1,1-0.2,2-0.4,2.9c-1.7,11.4-10.9,20.6-22.3,22.3c-1,0.1-2,0.3-2.9,0.4
			c-0.8,0-1.6,0-2.5,0c-0.1-0.1-0.3-0.1-0.5-0.1c-1.6-0.1-3.2-0.3-4.8-0.7C9.9,52.7,1.3,39.6,3.4,25.9C5.2,14.3,14.2,5.3,25.8,3.5
			c1-0.1,1.9-0.2,2.9-0.4c0.8,0,1.6,0,2.5,0c1,0.1,2,0.2,2.9,0.4c11.4,1.7,20.6,10.9,22.3,22.3C56.6,26.8,56.7,27.8,56.8,28.8z
			 M43.1,23.1c2-1.9,2.3-2.4,2.4-3.3c-1,0.6-2.1,1-3.3,1.3c-0.4,0.1-0.6,0-0.9-0.2c-3.3-3.1-8.7-1.6-10.1,2.7
			c-0.3,1.1-0.3,2.2-0.2,3.3c-5.2-0.3-9.4-2.5-12.8-6.4c-0.8,1.5-1,2.9-0.7,4.5c0.3,1.5,1.2,2.7,2.5,3.8c-1,0-1.9-0.3-2.8-0.7
			c0.2,3.2,1.9,5.1,4.9,6.1c-0.9,0.3-1.8,0.2-2.7,0.1c1.1,2.7,3,4,5.8,4.3c-2.7,2-5.6,2.8-8.9,2.6c0.1,0.1,0.1,0.1,0.1,0.2
			c0.1,0.1,0.3,0.2,0.4,0.3c5.1,2.8,10.4,3.2,15.7,0.8c6.9-3,10.2-8.6,10.6-16c0-0.7,0.2-1.2,0.8-1.6c0.9-0.6,1.6-1.4,2.2-2.5
			C45.2,22.7,44.2,23,43.1,23.1z"/>
	</g>
</g>
</svg>
